ffmpeg version n6.1.3-20250831 Copyright (c) 2000-2025 the FFmpeg developers
  built with gcc 15.1.0 (crosstool-NG 1.27.0.79_8f49ec5)
  configuration: --prefix=/ffbuild/prefix --pkg-config-flags=--static --pkg-config=pkg-config --cross-prefix=x86_64-w64-mingw32- --arch=x86_64 --target-os=mingw32 --enable-gpl --enable-version3 --disable-debug --disable-w32threads --enable-pthreads --enable-iconv --enable-zlib --enable-libxml2 --enable-libvmaf --enable-fontconfig --enable-libharfbuzz --enable-libfreetype --enable-libfribidi --enable-vulkan --enable-libshaderc --enable-libvorbis --disable-libxcb --disable-xlib --disable-libpulse --enable-gmp --enable-lzma --enable-opencl --enable-amf --enable-libaom --enable-libaribb24 --enable-avisynth --enable-chromaprint --enable-libdav1d --enable-libdavs2 --disable-libfdk-aac --enable-ffnvcodec --enable-cuda-llvm --enable-frei0r --enable-libgme --enable-libkvazaar --enable-libaribcaption --enable-libass --enable-libbluray --enable-libjxl --enable-libmp3lame --enable-libopus --enable-libplacebo --enable-librist --enable-libssh --enable-libtheora --enable-libvpx --enable-libwebp --enable-libzmq --enable-lv2 --enable-libvpl --enable-openal --enable-libopencore-amrnb --enable-libopencore-amrwb --enable-libopenh264 --enable-libopenjpeg --enable-libopenmpt --enable-librav1e --enable-librubberband --enable-schannel --enable-sdl2 --enable-libsnappy --enable-libsoxr --enable-libsrt --disable-libsvtav1 --enable-libtwolame --enable-libuavs3d --disable-libdrm --enable-vaapi --enable-libvidstab --enable-libx264 --enable-libx265 --enable-libxavs2 --enable-libxvid --enable-libzimg --enable-libzvbi --extra-cflags=-DLIBTWOLAME_STATIC --extra-cxxflags= --extra-libs=-lgomp --extra-ldflags=-pthread --extra-ldexeflags= --cc=x86_64-w64-mingw32-gcc --cxx=x86_64-w64-mingw32-g++ --ar=x86_64-w64-mingw32-gcc-ar --ranlib=x86_64-w64-mingw32-gcc-ranlib --nm=x86_64-w64-mingw32-gcc-nm --extra-version=20250831
  libavutil      58. 29.100 / 58. 29.100
  libavcodec     60. 31.102 / 60. 31.102
  libavformat    60. 16.100 / 60. 16.100
  libavdevice    60.  3.100 / 60.  3.100
  libavfilter     9. 12.100 /  9. 12.100
  libswscale      7.  5.100 /  7.  5.100
  libswresample   4. 12.100 /  4. 12.100
  libpostproc    57.  3.100 / 57.  3.100
Input #0, mov,mp4,m4a,3gp,3g2,mj2, from 'C:\Users\15666\Desktop\MaritimeTargetMonitor\edgeyolo-main\edgeyolo-main\船只检测视频.mp4':
  Metadata:
    major_brand     : isom
    minor_version   : 512
    compatible_brands: isomiso2avc1mp41
    encoder         : Lavf57.71.100
    description     : Packed by Bilibili XCoder v2.0.2
  Duration: 00:00:38.68, start: 0.000000, bitrate: 2875 kb/s
  Stream #0:0[0x1](und): Video: h264 (High) (avc1 / 0x31637661), yuv420p(tv, bt709, progressive), 1920x1080 [SAR 1:1 DAR 16:9], 2550 kb/s, 30 fps, 30 tbr, 16k tbn (default)
    Metadata:
      handler_name    : VideoHandler
      vendor_id       : [0][0][0][0]
  Stream #0:1[0x2](und): Audio: aac (LC) (mp4a / 0x6134706D), 44100 Hz, stereo, fltp, 320 kb/s (default)
    Metadata:
      handler_name    : SoundHandler
      vendor_id       : [0][0][0][0]
Output #0, flv, to 'rtmp://127.0.0.1:1935/live/raw':
  Metadata:
    major_brand     : isom
    minor_version   : 512
    compatible_brands: isomiso2avc1mp41
    description     : Packed by Bilibili XCoder v2.0.2
    encoder         : Lavf60.16.100
  Stream #0:0(und): Video: h264 (High) ([7][0][0][0] / 0x0007), yuv420p(tv, bt709, progressive), 1920x1080 [SAR 1:1 DAR 16:9], q=2-31, 2550 kb/s, 30 fps, 30 tbr, 1k tbn (default)
    Metadata:
      handler_name    : VideoHandler
      vendor_id       : [0][0][0][0]
Stream mapping:
  Stream #0:0 -> #0:0 (copy)
Press [q] to stop, [?] for help
size=       0kB time=-00:00:00.10 bitrate=  -0.0kbits/s speed=N/A    size=     523kB time=00:00:01.03 bitrate=4144.9kbits/s speed=2.06x    size=     754kB time=00:00:01.53 bitrate=4027.0kbits/s speed=1.51x    size=     928kB time=00:00:02.03 bitrate=3739.7kbits/s speed=1.34x    size=    1068kB time=00:00:02.56 bitrate=3409.4kbits/s speed=1.26x    size=    1219kB time=00:00:03.06 bitrate=3254.8kbits/s speed=1.21x    size=    1399kB time=00:00:03.60 bitrate=3183.7kbits/s speed=1.17x    size=    1605kB time=00:00:04.10 bitrate=3206.8kbits/s speed=1.15x    size=    1826kB time=00:00:04.63 bitrate=3229.2kbits/s speed=1.13x    size=    2110kB time=00:00:05.13 bitrate=3366.7kbits/s speed=1.11x    size=    2409kB time=00:00:05.66 bitrate=3481.7kbits/s speed= 1.1x    size=    2719kB time=00:00:06.20 bitrate=3593.1kbits/s speed=1.09x    size=    2988kB time=00:00:06.73 bitrate=3635.7kbits/s speed=1.08x    size=    3241kB time=00:00:07.23 bitrate=3671.0kbits/s speed=1.08x    size=    3494kB time=00:00:07.73 bitrate=3701.9kbits/s speed=1.07x    size=    3753kB time=00:00:08.26 bitrate=3719.4kbits/s speed=1.07x    size=    4010kB time=00:00:08.80 bitrate=3733.4kbits/s speed=1.06x    size=    4258kB time=00:00:09.33 bitrate=3737.6kbits/s speed=1.06x    size=    4474kB time=00:00:09.86 bitrate=3714.8kbits/s speed=1.06x    size=    4835kB time=00:00:10.40 bitrate=3808.7kbits/s speed=1.05x    size=    5108kB time=00:00:10.93 bitrate=3827.8kbits/s speed=1.05x    size=    5340kB time=00:00:11.43 bitrate=3826.3kbits/s speed=1.05x    size=    5555kB time=00:00:11.96 bitrate=3802.8kbits/s speed=1.05x    size=    5756kB time=00:00:12.46 bitrate=3782.3kbits/s speed=1.04x    size=    5963kB time=00:00:13.00 bitrate=3757.5kbits/s speed=1.04x    size=    6162kB time=00:00:13.50 bitrate=3739.0kbits/s speed=1.04x    size=    6371kB time=00:00:14.03 bitrate=3719.4kbits/s speed=1.04x    size=    6576kB time=00:00:14.56 bitrate=3697.9kbits/s speed=1.04x    size=    6886kB time=00:00:15.10 bitrate=3735.7kbits/s speed=1.04x    size=    7202kB time=00:00:15.63 bitrate=3774.0kbits/s speed=1.03x    size=    7486kB time=00:00:16.16 bitrate=3793.5kbits/s speed=1.03x    size=    7725kB time=00:00:16.66 bitrate=3797.0kbits/s speed=1.03x    size=    7960kB time=00:00:17.16 bitrate=3798.6kbits/s speed=1.03x    size=    8192kB time=00:00:17.70 bitrate=3791.5kbits/s speed=1.03x    size=    8414kB time=00:00:18.23 bitrate=3780.3kbits/s speed=1.03x    size=    8598kB time=00:00:18.73 bitrate=3760.1kbits/s speed=1.03x    size=    8800kB time=00:00:19.26 bitrate=3741.8kbits/s speed=1.03x    size=    8958kB time=00:00:19.76 bitrate=3712.6kbits/s speed=1.03x    size=    9236kB time=00:00:20.30 bitrate=3727.2kbits/s speed=1.03x    size=    9412kB time=00:00:20.80 bitrate=3706.7kbits/s speed=1.03x    size=    9587kB time=00:00:21.33 bitrate=3681.5kbits/s speed=1.03x    size=    9738kB time=00:00:21.86 bitrate=3648.0kbits/s speed=1.02x    size=    9889kB time=00:00:22.40 bitrate=3616.4kbits/s speed=1.02x    size=    9998kB time=00:00:22.90 bitrate=3576.6kbits/s speed=1.02x    size=   10124kB time=00:00:23.40 bitrate=3544.3kbits/s speed=1.02x    size=   10246kB time=00:00:23.90 bitrate=3511.9kbits/s speed=1.02x    size=   10326kB time=00:00:24.43 bitrate=3462.2kbits/s speed=1.02x    size=   10380kB time=00:00:24.93 bitrate=3410.5kbits/s speed=1.02x    size=   10554kB time=00:00:25.43 bitrate=3399.5kbits/s speed=1.02x    size=   10655kB time=00:00:25.96 bitrate=3361.5kbits/s speed=1.02x    size=   10738kB time=00:00:26.46 bitrate=3323.7kbits/s speed=1.02x    size=   10818kB time=00:00:27.00 bitrate=3282.3kbits/s speed=1.02x    size=   10895kB time=00:00:27.53 bitrate=3241.6kbits/s speed=1.02x    size=   10969kB time=00:00:28.03 bitrate=3205.3kbits/s speed=1.02x    size=   11038kB time=00:00:28.53 bitrate=3169.0kbits/s speed=1.02x    size=   11110kB time=00:00:29.06 bitrate=3131.1kbits/s speed=1.02x    size=   11178kB time=00:00:29.60 bitrate=3093.7kbits/s speed=1.02x    size=   11299kB time=00:00:30.10 bitrate=3075.1kbits/s speed=1.02x    size=   11371kB time=00:00:30.63 bitrate=3040.9kbits/s speed=1.02x    size=   11439kB time=00:00:31.16 bitrate=3006.7kbits/s speed=1.02x    size=   11496kB time=00:00:31.66 bitrate=2974.0kbits/s speed=1.02x    size=   11560kB time=00:00:32.20 bitrate=2940.9kbits/s speed=1.02x    size=   11619kB time=00:00:32.70 bitrate=2910.8kbits/s speed=1.02x    size=   11679kB time=00:00:33.20 bitrate=2881.7kbits/s speed=1.02x    size=   11722kB time=00:00:33.70 bitrate=2849.4kbits/s speed=1.02x    size=   11800kB time=00:00:34.23 bitrate=2823.7kbits/s speed=1.02x    size=   11863kB time=00:00:34.76 bitrate=2795.2kbits/s speed=1.01x    size=   12001kB time=00:00:35.30 bitrate=2785.0kbits/s speed=1.01x    size=   12015kB time=00:00:35.83 bitrate=2746.8kbits/s speed=1.01x    size=   12025kB time=00:00:36.36 bitrate=2708.7kbits/s speed=1.01x    size=   12031kB time=00:00:36.90 bitrate=2671.0kbits/s speed=1.01x    size=   12036kB time=00:00:37.40 bitrate=2636.3kbits/s speed=1.01x    size=   12040kB time=00:00:37.93 bitrate=2600.2kbits/s speed=1.01x    size=   12042kB time=00:00:38.43 bitrate=2566.7kbits/s speed=1.01x    size=   12324kB time=00:00:38.96 bitrate=2590.9kbits/s speed=1.01x    size=   12531kB time=00:00:39.46 bitrate=2601.0kbits/s speed=1.01x    size=   12754kB time=00:00:39.96 bitrate=2614.1kbits/s speed=1.01x    size=   12946kB time=00:00:40.50 bitrate=2618.6kbits/s speed=1.01x    size=   13074kB time=00:00:41.00 bitrate=2612.2kbits/s speed=1.01x    size=   13223kB time=00:00:41.53 bitrate=2608.1kbits/s speed=1.01x    size=   13364kB time=00:00:42.03 bitrate=2604.6kbits/s speed=1.01x    size=   13571kB time=00:00:42.56 bitrate=2611.6kbits/s speed=1.01x    size=   13786kB time=00:00:43.10 bitrate=2620.3kbits/s speed=1.01x    size=   14088kB time=00:00:43.60 bitrate=2647.1kbits/s speed=1.01x    size=   14335kB time=00:00:44.10 bitrate=2662.8kbits/s speed=1.01x    size=   14637kB time=00:00:44.60 bitrate=2688.5kbits/s speed=1.01x    size=   14918kB time=00:00:45.13 bitrate=2707.8kbits/s speed=1.01x    size=   15179kB time=00:00:45.66 bitrate=2723.0kbits/s speed=1.01x    size=   15439kB time=00:00:46.20 bitrate=2737.7kbits/s speed=1.01x    size=   15701kB time=00:00:46.73 bitrate=2752.2kbits/s speed=1.01x    size=   15952kB time=00:00:47.26 bitrate=2764.7kbits/s speed=1.01x    size=   16207kB time=00:00:47.80 bitrate=2777.6kbits/s speed=1.01x    size=   16450kB time=00:00:48.30 bitrate=2790.1kbits/s speed=1.01x    size=   16763kB time=00:00:48.83 bitrate=2812.1kbits/s speed=1.01x    size=   17040kB time=00:00:49.33 bitrate=2829.5kbits/s speed=1.01x    size=   17292kB time=00:00:49.86 bitrate=2840.6kbits/s speed=1.01x    size=   17513kB time=00:00:50.40 bitrate=2846.5kbits/s speed=1.01x    size=   17715kB time=00:00:50.90 bitrate=2851.1kbits/s speed=1.01x    size=   17920kB time=00:00:51.43 bitrate=2854.1kbits/s speed=1.01x    size=   18120kB time=00:00:51.93 bitrate=2858.2kbits/s speed=1.01x    size=   18334kB time=00:00:52.46 bitrate=2862.5kbits/s speed=1.01x    size=   18534kB time=00:00:53.00 bitrate=2864.7kbits/s speed=1.01x    size=   18719kB time=00:00:53.53 bitrate=2864.6kbits/s speed=1.01x    size=   19129kB time=00:00:54.06 bitrate=2898.3kbits/s speed=1.01x    size=   19422kB time=00:00:54.60 bitrate=2914.0kbits/s speed=1.01x    size=   19668kB time=00:00:55.10 bitrate=2924.1kbits/s speed=1.01x    size=   19916kB time=00:00:55.63 bitrate=2932.7kbits/s speed=1.01x    size=   20145kB time=00:00:56.13 bitrate=2940.0kbits/s speed=1.01x    size=   20365kB time=00:00:56.63 bitrate=2945.8kbits/s speed=1.01x    size=   20575kB time=00:00:57.16 bitrate=2948.4kbits/s speed=1.01x    size=   20781kB time=00:00:57.70 bitrate=2950.4kbits/s speed=1.01x    size=   20978kB time=00:00:58.23 bitrate=2951.0kbits/s speed=1.01x    size=   21200kB time=00:00:58.73 bitrate=2956.9kbits/s speed=1.01x    size=   21402kB time=00:00:59.26 bitrate=2958.2kbits/s speed=1.01x    size=   21582kB time=00:00:59.76 bitrate=2958.2kbits/s speed=1.01x    size=   21728kB time=00:01:00.26 bitrate=2953.4kbits/s speed=1.01x    size=   21873kB time=00:01:00.76 bitrate=2948.7kbits/s speed=1.01x    size=   22017kB time=00:01:01.30 bitrate=2942.3kbits/s speed=1.01x    size=   22132kB time=00:01:01.80 bitrate=2933.7kbits/s speed=1.01x    size=   22271kB time=00:01:02.33 bitrate=2926.9kbits/s speed=1.01x    size=   22331kB time=00:01:02.83 bitrate=2911.4kbits/s speed=1.01x    size=   22407kB time=00:01:03.36 bitrate=2896.8kbits/s speed=1.01x    size=   22579kB time=00:01:03.90 bitrate=2894.7kbits/s speed=1.01x    size=   22682kB time=00:01:04.43 bitrate=2883.8kbits/s speed=1.01x    size=   22774kB time=00:01:04.96 bitrate=2871.7kbits/s speed=1.01x    